<svg width="26" height="22" viewBox="0 0 26 22" fill="none" xmlns="http://www.w3.org/2000/svg">
	<path d="M8.28227 14.21H22.1712C22.5133 14.21 22.8145 13.9947 22.9064 13.6766L25.9702 3.4008C26.0366 3.1806 25.9906 2.94084 25.8476 2.75489C25.7047 2.56895 25.4749 2.4613 25.2349 2.4613H6.51552L6.10702 0.572509C6.03043 0.234875 5.71895 0 5.36152 0H0.765931C0.342116 0 0 0.327847 0 0.733986C0 1.14012 0.342116 1.46797 0.765931 1.46797H4.74877C4.84579 1.88879 7.23039 12.2967 7.37336 12.923C6.56148 13.2607 5.98958 14.0387 5.98958 14.9439C5.98958 16.1575 7.02104 17.1459 8.28738 17.1459H22.1763C22.6001 17.1459 22.9422 16.8181 22.9422 16.4119C22.9422 16.0058 22.6001 15.6779 22.1763 15.6779H8.28227C7.85845 15.6779 7.51634 15.3501 7.51634 14.9439C7.51634 14.5378 7.85845 14.21 8.28227 14.21ZM24.2187 3.93416L21.5942 12.742H8.89501L6.85253 3.93416H24.2187Z" fill="white" />
	<path d="M7.5166 19.7981C7.5166 21.0117 8.54806 22.0001 9.8144 22.0001C11.0807 22.0001 12.1122 21.0117 12.1122 19.7981C12.1122 18.5846 11.0807 17.5962 9.8144 17.5962C8.54806 17.5962 7.5166 18.5846 7.5166 19.7981ZM9.8144 19.0642C10.2382 19.0642 10.5803 19.392 10.5803 19.7981C10.5803 20.2043 10.2382 20.5321 9.8144 20.5321C9.39058 20.5321 9.04846 20.2043 9.04846 19.7981C9.04846 19.392 9.39058 19.0642 9.8144 19.0642Z" fill="white" />
	<path d="M18.3418 19.7981C18.3418 21.0117 19.3733 22.0001 20.6396 22.0001C21.9059 22.0001 22.9374 21.0117 22.9374 19.7981C22.9374 18.5846 21.9059 17.5962 20.6396 17.5962C19.3733 17.5962 18.3418 18.5846 18.3418 19.7981ZM20.6396 19.0642C21.0634 19.0642 21.4055 19.392 21.4055 19.7981C21.4055 20.2043 21.0634 20.5321 20.6396 20.5321C20.2158 20.5321 19.8737 20.2043 19.8737 19.7981C19.8737 19.392 20.2158 19.0642 20.6396 19.0642Z" fill="white" />
</svg>
