<svg width="241" height="36" viewBox="0 0 241 36" fill="none" xmlns="http://www.w3.org/2000/svg">
	<path d="M25.4031 30.9745C25.6593 30.7735 25.9155 30.5323 26.1718 30.291C29.3929 27.1956 31.4061 22.4921 31.4061 16.7835C31.4061 11.7584 29.9054 8.34132 27.5993 5.80865C26.8672 6.37147 25.8423 7.41669 24.9638 9.18554C26.245 11.5172 26.6476 14.1705 26.6476 17.5473C26.6476 21.5272 25.8423 24.9443 24.2318 27.5976C23.4631 28.8438 22.5114 29.9292 21.4133 30.7735C19.4001 32.3413 16.8012 33.1855 13.6532 33.1855C10.0661 33.1855 8.5287 32.1001 8.5287 28.1202V6.45187C8.5287 4.40162 8.71172 3.83881 9.15097 3.5172C9.62682 3.11519 10.7981 2.79358 12.9212 2.79358C15.9959 2.79358 18.668 3.31619 20.8276 4.72323C21.1936 4.24082 21.8159 3.4368 23.1703 2.63278C20.608 1.46695 17.5333 0.944336 13.3238 0.944336H0V1.42675C3.7336 1.82876 4.31926 3.03479 4.31926 7.5775V28.5624C4.31926 32.8639 4.13624 34.2307 0 34.673V35.1554H11.2008C15.9959 35.1554 19.9491 34.3915 23.2435 32.5021C23.7559 32.1805 24.2684 31.8589 24.7442 31.4971L24.9272 31.3363C25.1103 31.2157 25.2567 31.0951 25.4031 30.9745Z" fill="white" />
	<path d="M17.0205 15.0559C17.0937 14.4528 17.2035 13.8496 17.3499 13.2866C17.2401 13.8496 17.1303 14.4528 17.0205 15.0559Z" fill="white" />
	<path d="M20.6442 6.53307C20.3148 6.93508 19.9853 7.37729 19.6925 7.8597C19.3997 8.30191 19.1068 8.78432 18.8506 9.26674C18.3381 10.2316 17.8989 11.317 17.5695 12.4426C17.4963 12.724 17.423 13.0054 17.3498 13.2868C17.24 13.8496 17.1302 14.4527 17.0204 15.0557C16.9472 15.6587 16.874 16.3019 16.8374 16.9451C16.8374 17.2667 16.8008 17.5883 16.8008 17.9099C16.8008 18.2316 16.8008 18.5532 16.8008 18.8346C16.8008 18.9552 16.8008 19.0356 16.8008 19.1562C16.8008 19.3572 16.8374 19.5582 16.8374 19.7592C16.8374 19.8798 16.874 20.0004 16.874 20.1612C16.874 20.322 16.9106 20.523 16.9106 20.6838C16.9106 20.8044 16.9472 20.9652 16.9472 21.0858C16.9838 21.2466 16.9838 21.4074 17.0204 21.5682C17.057 21.729 17.057 21.8496 17.0936 21.9702C17.1302 22.131 17.1302 22.2516 17.1668 22.4125C17.2034 22.5733 17.24 22.6939 17.2766 22.8547C17.3132 22.9753 17.3498 23.1361 17.3864 23.2567C17.423 23.4175 17.4597 23.5381 17.4963 23.6989C17.5329 23.8195 17.5695 23.9401 17.6061 24.1009C17.6427 24.2617 17.6793 24.3823 17.7525 24.5431C17.7891 24.6637 17.8257 24.7843 17.8623 24.9049C17.8989 25.0657 17.9721 25.1863 18.0087 25.3471C18.0453 25.4677 18.0819 25.5883 18.1551 25.6687C18.2283 25.8295 18.2649 25.9501 18.3381 26.1109C18.3747 26.2315 18.4114 26.312 18.4846 26.4326C18.5578 26.5934 18.631 26.714 18.7042 26.8748C18.7408 26.9552 18.814 27.0758 18.8506 27.1562C18.9238 27.317 18.997 27.4376 19.0702 27.5984C19.1068 27.6788 19.18 27.7592 19.2166 27.8396C19.2898 28.0004 19.3997 28.121 19.4729 28.2818C19.5095 28.3622 19.5827 28.4426 19.6193 28.523C19.7291 28.6838 19.8023 28.8044 19.9121 28.9652C19.9487 29.0456 19.9853 29.0858 20.0585 29.1662C20.1683 29.327 20.2782 29.4878 20.388 29.6084C20.4246 29.6486 20.4612 29.6888 20.4978 29.729C20.5344 29.8094 20.5344 29.7692 20.571 29.8094C22.2548 28.6034 23.2065 27.0758 23.5725 26.3119C23.3163 25.7491 23.1333 25.3069 22.9502 24.7039C22.9136 24.5431 22.8404 24.3823 22.8038 24.2215C22.8038 24.1813 22.7672 24.1411 22.7672 24.1009C22.7306 23.9401 22.694 23.8195 22.6574 23.6587C22.6574 23.5783 22.6208 23.5381 22.6208 23.4577C22.5842 23.3371 22.5476 23.1763 22.511 23.0557C22.511 22.9753 22.4744 22.8949 22.4744 22.8145C22.4378 22.6939 22.4012 22.5733 22.4012 22.4125C22.4012 22.3321 22.3646 22.2517 22.3646 22.1712C22.328 22.0506 22.328 21.93 22.2914 21.8094C22.2914 21.729 22.2548 21.6084 22.2548 21.528C22.2182 21.4074 22.2182 21.2868 22.1816 21.1662C22.1816 21.0858 22.145 20.9652 22.145 20.8848C22.145 20.7642 22.1083 20.6436 22.1083 20.523C22.1083 20.4024 22.0717 20.322 22.0717 20.2014C22.0717 20.0808 22.0351 20.0004 22.0351 19.8798C22.0351 19.7592 21.9985 19.6386 21.9985 19.5582C21.9985 19.4376 21.9619 19.3572 21.9619 19.2366C21.9619 19.116 21.9619 18.9954 21.9253 18.8748C21.9253 18.7944 21.9253 18.6738 21.9253 18.5934C21.9253 18.4326 21.9253 18.312 21.9253 18.1512C21.9253 18.0707 21.9253 17.9903 21.9253 17.9099C21.9253 17.7089 21.9253 17.4677 21.9253 17.2667C21.9253 13.3672 22.694 10.1512 24.1216 7.6989C24.817 6.53307 25.6223 5.52804 26.574 4.68382C28.5506 2.99538 31.0763 2.11096 34.0046 2.11096C35.3956 2.11096 37.3722 2.39237 38.4703 2.79438C41.4718 3.8798 42.8262 5.64865 44.4001 9.34714H44.7296C44.7296 5.93005 44.7296 3.47779 44.7296 1.46775C43.2288 1.18634 39.6416 0.141113 34.7733 0.141113C30.9665 0.141113 27.3793 1.18634 24.451 3.15619C23.4993 3.7592 22.6208 4.48282 21.8521 5.28684C21.3397 5.72905 20.9736 6.13106 20.6442 6.53307Z" fill="white" />
	<path d="M35.7614 19.2368V19.7192C40.3735 20.081 40.7395 21.5283 40.7395 25.3876V29.6891C40.7395 31.8599 40.1173 32.4227 39.129 33.0659C38.1773 33.5886 36.6765 33.9504 35.0659 33.9504C31.6252 33.9504 29.3191 33.1463 27.2693 31.2971C26.7568 31.8599 25.9882 32.7443 24.707 33.5885C27.4157 35.3574 30.3806 35.88 34.3339 35.88C38.3603 35.88 42.2403 34.7142 45.2052 33.9906C44.949 32.5835 44.9124 30.8147 44.9124 29.0056V24.5835C44.9124 21.4881 45.0954 20.1212 48.0603 19.7192V19.2368H35.7614Z" fill="white" />
	<path d="M24.7812 31.4579C24.8547 31.4177 24.8914 31.3774 24.9648 31.2969L24.7812 31.4579Z" fill="white" />
	<path d="M67.3509 1.42627C71.0845 1.42627 73.5004 2.23029 75.1842 3.99913C76.5019 5.40616 77.4902 7.49661 77.4902 10.3509C77.4902 13.8082 76.2091 16.582 74.1226 18.2705C72.0728 19.9589 69.474 20.6423 66.2162 20.6423H59.7373V19.7579C62.0067 19.5167 62.1532 19.3157 62.1532 16.9036V5.20516C62.1532 2.6725 61.8237 2.5519 59.7373 2.31069V1.42627H67.3509ZM64.7154 16.6624C64.7154 18.8735 65.5207 19.4765 67.5339 19.4765C72.146 19.4765 74.5619 15.979 74.5619 10.7529C74.5619 7.61722 73.6102 5.16496 71.6702 3.75792C70.4623 2.8333 68.9249 2.47149 67.1313 2.47149C65.96 2.47149 65.3377 2.6725 65.0815 2.8735C64.8253 3.07451 64.752 3.43632 64.752 4.52174V16.6624H64.7154Z" fill="white" />
	<path d="M97.0733 2.31118C95.3896 2.43178 94.7673 2.91419 94.7307 4.24083C94.6941 4.96444 94.6575 6.17047 94.6575 8.74333V12.0398C94.6575 14.9745 94.328 17.3061 92.7541 19.1152C91.5095 20.5624 89.6427 21.0448 87.7759 21.0448C86.1654 21.0448 84.4816 20.683 83.2737 19.6378C81.6631 18.271 80.8944 16.3011 80.8944 12.8438V5.36645C80.8944 2.71319 80.6748 2.51218 78.5518 2.31118V1.42676H85.8359V2.31118C83.7129 2.47198 83.4933 2.71319 83.4933 5.36645V12.8438C83.4933 16.9845 85.2869 19.3162 88.4348 19.3162C92.1318 19.3162 93.3763 16.7031 93.3763 11.879V8.74333C93.3763 6.13027 93.3031 5.04484 93.2299 4.20062C93.1567 2.87399 92.4978 2.39158 90.5212 2.27098V1.42676H97.0367V2.31118H97.0733Z" fill="white" />
	<path d="M112.117 15.6579C111.934 16.6227 111.166 19.7182 110.873 20.6026H98.208V19.7182C100.66 19.477 100.843 19.3162 100.843 16.7835V5.12525C100.843 2.63279 100.587 2.47198 98.4276 2.23078V1.42676H105.858V2.31118C103.699 2.55239 103.406 2.67299 103.406 5.20565V17.1453C103.406 18.9142 103.589 19.3966 105.126 19.4368C105.163 19.4368 106.956 19.477 107.139 19.477C108.53 19.477 108.933 19.276 109.555 18.5122C110.214 17.7886 110.8 16.5825 111.202 15.4569L112.117 15.6579Z" fill="white" />
	<path d="M127.638 15.6579C127.454 16.6227 126.686 19.7182 126.393 20.6026H113.765V19.7182C116.217 19.477 116.4 19.3162 116.4 16.7835V5.12525C116.4 2.63279 116.144 2.47198 113.984 2.23078V1.42676H121.415V2.31118C119.255 2.55239 118.962 2.67299 118.962 5.20565V17.1453C118.962 18.9142 119.145 19.3966 120.683 19.4368C120.719 19.4368 122.513 19.477 122.696 19.477C124.087 19.477 124.49 19.276 125.112 18.5122C125.771 17.7886 126.356 16.5825 126.759 15.4569L127.638 15.6579Z" fill="white" />
	<path d="M143.267 15.8591C143.121 16.6229 142.389 19.7586 142.132 20.6028H128.882V19.7184C131.371 19.5174 131.554 19.2762 131.554 16.8239V5.24601C131.554 2.63295 131.261 2.47215 129.284 2.27114V1.42692H137.63C140.229 1.42692 141.254 1.38672 141.583 1.38672C141.62 2.07014 141.73 4.36159 141.84 5.96963L140.998 6.13044C140.742 5.12541 140.449 4.40179 140.119 3.79878C139.68 2.87416 139.094 2.67315 137.52 2.67315H135.105C134.226 2.67315 134.189 2.75355 134.189 3.63797V10.1103H137.118C139.058 10.1103 139.204 9.66812 139.534 7.65807H140.412V13.849H139.534C139.168 11.7184 138.948 11.3968 137.081 11.3968H134.189V17.0651C134.189 19.1154 134.702 19.3968 136.093 19.3968H138.472C140.083 19.3968 140.375 19.1556 140.961 18.3515C141.51 17.6681 142.059 16.5023 142.462 15.5777L143.267 15.8591Z" fill="white" />
	<path d="M154.541 5.97044C154.065 4.04079 153.333 2.07094 150.807 2.07094C148.794 2.07094 148.025 3.67898 148.025 5.24682C148.025 7.21667 149.16 8.22169 151.43 9.50812C154.614 11.277 156.078 12.684 156.078 15.4981C156.078 18.6739 153.589 21.086 150.039 21.086C148.392 21.086 146.964 20.5634 145.866 20.1212C145.646 19.3172 145.317 17.1061 145.134 15.5785L146.012 15.3373C146.561 17.3071 147.806 20.0006 150.551 20.0006C152.418 20.0006 153.589 18.5935 153.589 16.6639C153.589 14.493 152.528 13.5684 150.149 12.1614C147.33 10.4729 145.683 9.06591 145.683 6.25184C145.683 3.51818 147.696 1.06592 151.356 1.06592C152.93 1.06592 154.395 1.50813 154.98 1.62873C155.09 2.71416 155.2 3.96039 155.419 5.84983L154.541 5.97044Z" fill="white" />
	<path d="M182.543 12.5631C180.896 12.8043 180.786 12.9651 180.786 14.7741V17.2264C180.786 18.2716 180.823 19.2364 180.933 20.0404C179.322 20.4425 176.98 21.0857 174.747 21.0857C168.597 21.0857 164.9 16.9048 164.9 10.9952C164.9 4.68368 169.586 1.02539 175.04 1.02539C177.675 1.02539 179.762 1.62841 180.603 1.74901C180.64 2.87463 180.823 4.76408 181.006 6.57312L180.164 6.77413C179.505 4.28167 178.7 3.15604 177.016 2.55303C176.394 2.31182 175.296 2.19122 174.564 2.19122C170.611 2.19122 167.975 5.28669 167.975 10.6334C167.975 15.4173 170.098 20.0002 175.149 20.0002C175.991 20.0002 176.797 19.7992 177.346 19.5178C177.895 19.1962 178.224 18.8344 178.224 17.6686V15.2163C178.224 13.0857 177.968 12.8445 175.442 12.6033V11.7188H182.58V12.5631H182.543Z" fill="white" />
	<path d="M197.698 15.6579C197.515 16.6227 196.746 19.7182 196.453 20.6026H183.788V19.7182C186.241 19.477 186.424 19.3162 186.424 16.7835V5.12525C186.424 2.63279 186.167 2.47198 184.008 2.23078V1.42676H191.438V2.31118C189.279 2.55239 188.986 2.67299 188.986 5.20565V17.1453C188.986 18.9142 189.169 19.3966 190.706 19.4368C190.743 19.4368 192.536 19.477 192.719 19.477C194.11 19.477 194.513 19.276 195.135 18.5122C195.794 17.7886 196.38 16.5825 196.782 15.4569L197.698 15.6579Z" fill="white" />
	<path d="M209.484 20.6436V19.7592C211.241 19.518 211.387 19.2366 211.021 18.0708C210.692 16.9853 210.179 15.4979 209.63 13.7693H203.92C203.517 15.0155 203.114 16.1813 202.748 17.3472C202.163 19.2768 202.602 19.4778 204.762 19.7592V20.6436H198.466V19.7592C200.15 19.518 200.589 19.317 201.541 16.6637L207.104 1.18636L208.056 0.985352C209.74 6.05068 211.607 11.5984 213.327 16.6637C214.205 19.2768 214.462 19.518 216.329 19.719V20.6034H209.484V20.6436ZM206.848 5.16625C206.006 7.61852 205.128 10.1914 204.322 12.4828H209.227L206.848 5.16625Z" fill="white" />
	<path d="M226.798 5.97044C226.322 4.04079 225.59 2.07094 223.064 2.07094C221.051 2.07094 220.282 3.67898 220.282 5.24682C220.282 7.21667 221.417 8.22169 223.687 9.50812C226.871 11.277 228.335 12.684 228.335 15.4981C228.335 18.6739 225.846 21.086 222.296 21.086C220.648 21.086 219.221 20.5634 218.123 20.1212C217.903 19.3172 217.574 17.1061 217.391 15.5785L218.269 15.3373C218.818 17.3071 220.063 20.0006 222.808 20.0006C224.675 20.0006 225.846 18.5935 225.846 16.6639C225.846 14.493 224.785 13.5684 222.405 12.1614C219.587 10.4729 217.94 9.06591 217.94 6.25184C217.94 3.51818 219.953 1.06592 223.613 1.06592C225.187 1.06592 226.651 1.50813 227.237 1.62873C227.347 2.71416 227.457 3.96039 227.676 5.84983L226.798 5.97044Z" fill="white" />
	<path d="M239.462 5.97044C238.986 4.04079 238.254 2.07094 235.728 2.07094C233.715 2.07094 232.946 3.67898 232.946 5.24682C232.946 7.21667 234.081 8.22169 236.351 9.50812C239.535 11.277 240.999 12.684 240.999 15.4981C240.999 18.6739 238.51 21.086 234.96 21.086C233.312 21.086 231.885 20.5634 230.787 20.1212C230.567 19.3172 230.238 17.1061 230.055 15.5785L230.933 15.3373C231.482 17.3071 232.727 20.0006 235.472 20.0006C237.339 20.0006 238.51 18.5935 238.51 16.6639C238.51 14.493 237.449 13.5684 235.069 12.1614C232.251 10.4729 230.604 9.06591 230.604 6.25184C230.604 3.51818 232.617 1.06592 236.277 1.06592C237.851 1.06592 239.315 1.50813 239.901 1.62873C240.011 2.71416 240.121 3.96039 240.34 5.84983L239.462 5.97044Z" fill="white" />
	<path d="M60.9814 26.3931H62.226V33.7498H65.8132V34.9961H60.9814V26.3931Z" fill="white" />
	<path d="M76.1724 26.2716C78.3686 26.2314 80.3086 28.2414 80.272 30.6937C80.3086 33.146 78.3686 35.156 76.1724 35.1158C73.9396 35.156 72.0362 33.146 72.0728 30.6937C72.0362 28.2414 73.9396 26.2314 76.1724 26.2716ZM76.1724 27.5178C74.5618 27.5178 73.3539 28.8847 73.3539 30.6937C73.3539 32.5429 74.5252 33.8696 76.1724 33.8696C77.783 33.8696 78.9909 32.5027 78.9909 30.6937C78.9909 28.8847 77.783 27.5178 76.1724 27.5178Z" fill="white" />
	<path d="M93.4126 26.3921L89.9718 35.1157H89.5326L86.0918 26.3921H87.4827L89.7156 32.3418L91.9484 26.3921H93.4126Z" fill="white" />
	<path d="M100.696 26.3921H105.821V27.6383H101.941V29.8494H104.869V31.0554H101.941V33.7891H105.967V35.0353H100.696V26.3921Z" fill="white" />
	<path d="M122.879 31.5372V34.9944H121.634V31.5372L118.926 26.4316H120.317L122.257 30.1703L124.197 26.4316H125.588L122.879 31.5372Z" fill="white" />
	<path d="M136.166 26.2716C138.362 26.2314 140.302 28.2414 140.265 30.6937C140.302 33.146 138.362 35.156 136.166 35.1158C133.933 35.156 132.029 33.146 132.066 30.6937C132.029 28.2414 133.933 26.2314 136.166 26.2716ZM136.202 27.5178C134.592 27.5178 133.384 28.8847 133.384 30.6937C133.384 32.5429 134.555 33.8696 136.202 33.8696C137.813 33.8696 139.021 32.5027 139.021 30.6937C138.984 28.8847 137.776 27.5178 136.202 27.5178Z" fill="white" />
	<path d="M147.732 26.3921H148.977V31.578C148.977 33.0252 149.782 33.8293 150.954 33.8293C152.088 33.8293 152.894 33.0252 152.894 31.578V26.3921H154.138V31.4976C154.138 33.7489 152.784 35.1157 150.954 35.1157C149.087 35.1157 147.732 33.7489 147.732 31.4976V26.3921Z" fill="white" />
	<path d="M166.95 34.9951L164.717 31.6986H163.289V34.9951H162.045V26.3921H164.9C166.474 26.3921 167.536 27.4775 167.536 29.0052C167.536 30.1308 166.95 31.0152 166.035 31.4172L168.377 34.9549H166.95V34.9951ZM163.289 30.4524H164.863C165.742 30.4524 166.254 29.8896 166.254 29.0454C166.254 28.2011 165.742 27.6383 164.863 27.6383H163.289V30.4524Z" fill="white" />
	<path d="M185.764 26.2716C187.118 26.2716 188.253 26.9148 188.985 28.0806L188.07 28.8847C187.484 28.0002 186.715 27.5178 185.727 27.5178C184.08 27.5178 182.909 28.8847 182.909 30.6937C182.909 32.5429 184.117 33.9098 185.8 33.9098C186.825 33.9098 187.631 33.4274 188.143 32.6233V31.6987H185.727V30.4927H189.388V32.9047C188.692 34.2716 187.301 35.156 185.727 35.156C183.458 35.1962 181.591 33.1862 181.627 30.7339C181.591 28.2414 183.494 26.2314 185.764 26.2716Z" fill="white" />
	<path d="M196.965 26.3921H198.209V33.7489H201.797V34.9951H196.965V26.3921Z" fill="white" />
	<path d="M213.766 33.5479H210.252L209.703 34.9951H208.349L211.789 26.2715H212.229L215.669 34.9951H214.315L213.766 33.5479ZM212.009 28.8041L210.691 32.3418H213.29L212.009 28.8041Z" fill="white" />
	<path d="M223.21 32.5428C223.722 33.387 224.345 33.9097 225.26 33.9097C226.065 33.9097 226.614 33.4272 226.614 32.7036C226.614 32.1006 226.285 31.8192 225.479 31.4172L224.601 30.975C223.466 30.4122 222.771 29.7288 222.771 28.6031C222.771 27.1961 223.869 26.2715 225.223 26.2715C226.321 26.2715 227.273 26.8745 227.749 27.7991L226.87 28.5227C226.468 27.8393 225.882 27.4775 225.223 27.4775C224.564 27.4775 224.052 27.8393 224.052 28.5227C224.089 29.2062 224.381 29.3268 225.15 29.7288L226.029 30.171C227.31 30.8142 227.895 31.4976 227.895 32.6232C227.895 34.1107 226.797 35.1157 225.296 35.1157C224.015 35.1157 222.954 34.4323 222.368 33.2664L223.21 32.5428Z" fill="white" />
	<path d="M235.802 32.5428C236.314 33.387 236.937 33.9097 237.852 33.9097C238.657 33.9097 239.206 33.4272 239.206 32.7036C239.206 32.1006 238.877 31.8192 238.071 31.4172L237.193 30.975C236.058 30.4122 235.363 29.7288 235.363 28.6031C235.363 27.1961 236.461 26.2715 237.815 26.2715C238.913 26.2715 239.865 26.8745 240.341 27.7991L239.462 28.5227C239.06 27.8393 238.474 27.4775 237.815 27.4775C237.156 27.4775 236.644 27.8393 236.644 28.5227C236.68 29.2062 236.973 29.3268 237.742 29.7288L238.62 30.171C239.902 30.8142 240.487 31.4976 240.487 32.6232C240.487 34.1107 239.389 35.1157 237.888 35.1157C236.607 35.1157 235.546 34.4323 234.96 33.2664L235.802 32.5428Z" fill="white" />
</svg>
