<svg width="241" height="36" viewBox="0 0 241 36" fill="none" xmlns="http://www.w3.org/2000/svg">
<path d="M25.4031 30.9745C25.6593 30.7735 25.9155 30.5323 26.1718 30.291C29.3929 27.1956 31.4061 22.4921 31.4061 16.7835C31.4061 11.7584 29.9054 8.34132 27.5993 5.80865C26.8672 6.37147 25.8423 7.41669 24.9638 9.18554C26.245 11.5172 26.6476 14.1705 26.6476 17.5473C26.6476 21.5272 25.8423 24.9443 24.2318 27.5976C23.4631 28.8438 22.5114 29.9292 21.4133 30.7735C19.4001 32.3413 16.8012 33.1855 13.6532 33.1855C10.0661 33.1855 8.5287 32.1001 8.5287 28.1202V6.45187C8.5287 4.40162 8.71172 3.83881 9.15097 3.5172C9.62682 3.11519 10.7981 2.79358 12.9212 2.79358C15.9959 2.79358 18.668 3.31619 20.8276 4.72323C21.1936 4.24082 21.8159 3.4368 23.1703 2.63278C20.608 1.46695 17.5333 0.944336 13.3238 0.944336H0V1.42675C3.7336 1.82876 4.31926 3.03479 4.31926 7.5775V28.5624C4.31926 32.8639 4.13624 34.2307 0 34.673V35.1554H11.2008C15.9959 35.1554 19.9491 34.3915 23.2435 32.5021C23.7559 32.1805 24.2684 31.8589 24.7442 31.4971L24.9272 31.3363C25.1103 31.2157 25.2567 31.0951 25.4031 30.9745Z" fill="white"/>
<path d="M17.0205 15.0559C17.0937 14.4528 17.2035 13.8496 17.3499 13.2866C17.2401 13.8496 17.1303 14.4528 17.0205 15.0559Z" fill="white"/>
<path d="M20.6442 6.53307C20.3148 6.93508 19.9853 7.37729 19.6925 7.8597C19.3997 8.30191 19.1068 8.78432 18.8506 9.26674C18.3381 10.2316 17.8989 11.317 17.5695 12.4426C17.4963 12.724 17.423 13.0054 17.3498 13.2868C17.24 13.8496 17.1302 14.4527 17.0204 15.0557C16.9472 15.6587 16.874 16.3019 16.8374 16.9451C16.8374 17.2667 16.8008 17.5883 16.8008 17.9099C16.8008 18.2316 16.8008 18.5532 16.8008 18.8346C16.8008 18.9552 16.8008 19.0356 16.8008 19.1562C16.8008 19.3572 16.8374 19.5582 16.8374 19.7592C16.8374 19.8798 16.874 20.0004 16.874 20.1612C16.874 20.322 16.9106 20.523 16.9106 20.6838C16.9106 20.8044 16.9472 20.9652 16.9472 21.0858C16.9838 21.2466 16.9838 21.4074 17.0204 21.5682C17.057 21.729 17.057 21.8496 17.0936 21.9702C17.1302 22.131 17.1302 22.2516 17.1668 22.4125C17.2034 22.5733 17.24 22.6939 17.2766 22.8547C17.3132 22.9753 17.3498 23.1361 17.3864 23.2567C17.423 23.4175 17.4597 23.5381 17.4963 23.6989C17.5329 23.8195 17.5695 23.9401 17.6061 24.1009C17.6427 24.2617 17.6793 24.3823 17.7525 24.5431C17.7891 24.6637 17.8257 24.7843 17.8623 24.9049C17.8989 25.0657 17.9721 25.1863 18.0087 25.3471C18.0453 25.4677 18.0819 25.5883 18.1551 25.6687C18.2283 25.8295 18.2649 25.9501 18.3381 26.1109C18.3747 26.2315 18.4114 26.312 18.4846 26.4326C18.5578 26.5934 18.631 26.714 18.7042 26.8748C18.7408 26.9552 18.814 27.0758 18.8506 27.1562C18.9238 27.317 18.997 27.4376 19.0702 27.5984C19.1068 27.6788 19.18 27.7592 19.2166 27.8396C19.2898 28.0004 19.3997 28.121 19.4729 28.2818C19.5095 28.3622 19.5827 28.4426 19.6193 28.523C19.7291 28.6838 19.8023 28.8044 19.9121 28.9652C19.9487 29.0456 19.9853 29.0858 20.0585 29.1662C20.1683 29.327 20.2782 29.4878 20.388 29.6084C20.4246 29.6486 20.4612 29.6888 20.4978 29.729C20.5344 29.8094 20.5344 29.7692 20.571 29.8094C22.2548 28.6034 23.2065 27.0758 23.5725 26.3119C23.3163 25.7491 23.1333 25.3069 22.9502 24.7039C22.9136 24.5431 22.8404 24.3823 22.8038 24.2215C22.8038 24.1813 22.7672 24.1411 22.7672 24.1009C22.7306 23.9401 22.694 23.8195 22.6574 23.6587C22.6574 23.5783 22.6208 23.5381 22.6208 23.4577C22.5842 23.3371 22.5476 23.1763 22.511 23.0557C22.511 22.9753 22.4744 22.8949 22.4744 22.8145C22.4378 22.6939 22.4012 22.5733 22.4012 22.4125C22.4012 22.3321 22.3646 22.2517 22.3646 22.1712C22.328 22.0506 22.328 21.93 22.2914 21.8094C22.2914 21.729 22.2548 21.6084 22.2548 21.528C22.2182 21.4074 22.2182 21.2868 22.1816 21.1662C22.1816 21.0858 22.145 20.9652 22.145 20.8848C22.145 20.7642 22.1083 20.6436 22.1083 20.523C22.1083 20.4024 22.0717 20.322 22.0717 20.2014C22.0717 20.0808 22.0351 20.0004 22.0351 19.8798C22.0351 19.7592 21.9985 19.6386 21.9985 19.5582C21.9985 19.4376 21.9619 19.3572 21.9619 19.2366C21.9619 19.116 21.9619 18.9954 21.9253 18.8748C21.9253 18.7944 21.9253 18.6738 21.9253 18.5934C21.9253 18.4326 21.9253 18.312 21.9253 18.1512C21.9253 18.0707 21.9253 17.9903 21.9253 17.9099C21.9253 17.7089 21.9253 17.4677 21.9253 17.2667C21.9253 13.3672 22.694 10.1512 24.1216 7.6989C24.817 6.53307 25.6223 5.52804 26.574 4.68382C28.5506 2.99538 31.0763 2.11096 34.0046 2.11096C35.3956 2.11096 37.3722 2.39237 38.4703 2.79438C41.4718 3.8798 42.8262 5.64865 44.4001 9.34714H44.7296C44.7296 5.93005 44.7296 3.47779 44.7296 1.46775C43.2288 1.18634 39.6416 0.141113 34.7733 0.141113C30.9665 0.141113 27.3793 1.18634 24.451 3.15619C23.4993 3.7592 22.6208 4.48282 21.8521 5.28684C21.3397 5.72905 20.9736 6.13106 20.6442 6.53307Z" fill="white"/>
<path d="M35.7614 19.2368V19.7192C40.3735 20.081 40.7395 21.5283 40.7395 25.3876V29.6891C40.7395 31.8599 40.1173 32.4227 39.129 33.0659C38.1773 33.5886 36.6765 33.9504 35.0659 33.9504C31.6252 33.9504 29.3191 33.1463 27.2693 31.2971C26.7568 31.8599 25.9882 32.7443 24.707 33.5885C27.4157 35.3574 30.3806 35.88 34.3339 35.88C38.3603 35.88 42.2403 34.7142 45.2052 33.9906C44.949 32.5835 44.9124 30.8147 44.9124 29.0056V24.5835C44.9124 21.4881 45.0954 20.1212 48.0603 19.7192V19.2368H35.7614Z" fill="white"/>
<path d="M24.7812 31.4579C24.8547 31.4177 24.8914 31.3774 24.9648 31.2969L24.7812 31.4579Z" fill="white"/>
</svg>
